<?xml version="1.0" standalone="no"?>
<!DOCTYPE svg PUBLIC "-//W3C//DTD SVG 20010904//EN"
 "http://www.w3.org/TR/2001/REC-SVG-20010904/DTD/svg10.dtd">
<svg version="1.0" xmlns="http://www.w3.org/2000/svg"
 width="700.000000pt" height="700.000000pt" viewBox="0 0 700.000000 700.000000"
 preserveAspectRatio="xMidYMid meet">
<metadata>
Created by potrace 1.14, written by Peter Selinger 2001-2017
</metadata>
<g transform="translate(0.000000,700.000000) scale(0.100000,-0.100000)"
fill="#000000" stroke="none">
<path d="M3278 6996 c-1 -2 -39 -6 -83 -10 -400 -31 -838 -151 -1213 -333
-177 -86 -446 -246 -552 -330 -8 -6 -51 -40 -95 -74 -426 -331 -813 -825
-1020 -1299 -25 -58 -50 -114 -55 -125 -45 -93 -150 -427 -176 -560 -2 -11
-10 -54 -19 -95 -22 -115 -30 -160 -41 -255 -26 -230 -26 -666 1 -826 2 -13 6
-46 9 -74 21 -182 109 -546 165 -680 5 -11 29 -74 55 -141 55 -142 169 -372
246 -497 30 -48 60 -95 65 -105 39 -68 238 -330 314 -412 243 -262 432 -425
688 -596 77 -52 145 -94 149 -94 4 0 15 -6 23 -14 29 -25 304 -161 431 -213
69 -28 173 -67 233 -87 171 -58 424 -117 606 -142 25 -3 57 -8 71 -10 163 -25
682 -25 842 1 13 2 46 7 73 10 72 10 86 12 120 19 17 3 44 8 60 11 727 138
1438 543 1935 1104 36 41 70 79 76 85 29 30 185 242 240 326 120 184 241 412
315 597 66 163 147 422 175 558 16 79 54 301 59 350 4 33 9 71 11 85 9 47 11
525 3 605 -15 165 -21 220 -24 225 -2 3 -6 30 -10 60 -3 30 -10 71 -15 90 -5
19 -12 51 -15 70 -12 72 -65 269 -100 375 -106 314 -227 562 -411 840 -427
647 -1061 1134 -1799 1383 -167 56 -419 119 -555 137 -19 3 -46 7 -60 10 -13
2 -54 7 -90 11 -36 3 -76 8 -90 11 -27 5 -536 14 -542 9z m616 -717 c4 -4 94
-311 192 -654 19 -66 47 -156 63 -200 16 -44 55 -150 86 -235 31 -85 61 -164
65 -175 5 -11 47 -125 95 -254 47 -128 89 -241 94 -250 5 -9 60 -35 123 -58
62 -23 284 -105 493 -183 294 -110 459 -165 730 -242 193 -55 360 -102 372
-104 12 -2 34 -9 47 -14 l25 -9 1 -393 0 -393 -103 -30 c-56 -16 -106 -30
-112 -32 -32 -7 -595 -175 -620 -184 -71 -26 -229 -82 -719 -253 -104 -37
-200 -72 -214 -79 -20 -9 -34 -36 -68 -132 -46 -131 -77 -216 -209 -580 -94
-260 -119 -331 -133 -385 -29 -103 -204 -705 -207 -708 -5 -6 -778 -2 -784 4
-3 3 -20 55 -37 117 -18 62 -60 207 -94 322 -33 116 -63 219 -65 229 -11 49
-39 124 -213 572 l-187 482 -40 17 c-22 9 -58 25 -80 35 -22 10 -69 30 -105
45 -36 14 -83 35 -105 45 -22 10 -179 78 -350 150 -295 126 -366 151 -690 241
-184 50 -405 116 -410 121 -10 9 -12 778 -3 784 8 5 162 51 608 180 85 25 243
77 350 115 107 39 220 79 250 90 30 11 62 23 70 26 8 3 17 7 20 8 3 1 14 5 25
9 20 8 51 19 275 99 69 25 135 48 147 52 15 4 28 23 42 58 11 29 69 185 130
347 62 162 115 304 120 315 35 77 118 316 155 445 25 85 76 263 114 395 l69
240 94 5 c111 6 687 5 693 -1z m-1788 -1263 l291 -295 -58 -56 -59 -55 -244
247 c-134 137 -359 365 -500 508 l-255 260 57 57 57 58 210 -215 c116 -117
341 -346 501 -509z m3631 608 c-155 -161 -960 -964 -965 -964 -4 0 -31 24 -60
53 l-53 54 482 486 483 487 57 -57 c32 -32 57 -58 56 -59z m-3409 -3296 c29
-29 52 -55 52 -58 0 -4 -223 -228 -496 -499 l-496 -493 -54 53 c-30 29 -54 56
-54 60 0 8 983 989 991 989 3 0 29 -23 57 -52z m2733 -278 c176 -173 399 -392
494 -485 l174 -171 -55 -58 -56 -58 -46 45 c-26 25 -174 171 -330 324 -156
153 -360 353 -454 444 l-170 167 53 56 c30 31 57 55 61 54 5 -2 152 -145 329
-318z"/>
<path d="M3263 5674 c-2 -6 -3 -42 -1 -80 l3 -69 230 -1 c127 0 235 1 241 3 7
3 11 33 10 81 l-1 77 -239 0 c-164 0 -240 -3 -243 -11z"/>
<path d="M3271 5255 c-4 -5 -7 -41 -6 -80 l1 -70 241 -1 241 -1 4 67 c2 37 2
74 0 82 -2 11 -46 13 -238 14 -151 0 -238 -4 -243 -11z"/>
<path d="M3274 4841 c-2 -2 -4 -39 -4 -81 l0 -76 245 0 244 0 -2 81 -2 80
-238 0 c-131 0 -240 -2 -243 -4z"/>
<path d="M3488 4126 c-1 -2 -30 -6 -63 -9 -33 -3 -73 -10 -88 -16 -15 -6 -27
-8 -27 -5 0 3 -40 -16 -88 -41 -346 -178 -452 -606 -228 -919 73 -102 185
-186 302 -226 185 -64 380 -39 546 70 379 248 374 796 -9 1043 -82 54 -171 86
-257 93 -33 3 -66 7 -73 9 -6 2 -13 2 -15 1z m127 -181 c344 -90 461 -521 209
-772 -129 -129 -332 -170 -499 -101 -143 60 -262 208 -280 349 -14 115 -5 180
39 275 94 199 317 304 531 249z"/>
<path d="M2171 3760 c-5 -3 -8 -112 -8 -242 l1 -236 64 -4 c105 -5 98 -24 97
240 0 127 -4 235 -9 239 -8 9 -132 12 -145 3z"/>
<path d="M1743 3512 l2 -243 80 3 80 3 0 225 c0 124 -2 232 -3 242 -3 13 -17
16 -82 15 l-79 -1 2 -244z"/>
<path d="M4680 3515 l0 -244 80 0 c54 0 80 4 81 12 1 12 0 131 0 348 l-1 127
-80 1 -80 1 0 -245z"/>
<path d="M5104 3751 c-9 -10 -4 -481 6 -482 13 0 126 0 143 0 9 1 11 54 9 238
-2 131 -5 239 -8 242 -6 6 -144 8 -150 2z"/>
<path d="M1323 3508 l0 -243 81 -2 81 -1 0 241 -1 242 -81 3 -81 3 1 -243z"/>
<path d="M5520 3507 l1 -243 81 1 81 0 -1 200 c0 110 -1 219 -1 243 l-1 42
-80 0 -80 0 0 -243z"/>
<path d="M3270 2250 c0 -66 3 -78 18 -82 9 -2 118 -3 242 -3 l225 1 2 82 1 82
-244 -1 -244 0 0 -79z"/>
<path d="M3269 1886 c-5 -102 -5 -136 0 -137 3 -1 113 -2 244 -3 l237 -1 0 81
0 82 -240 0 c-238 0 -240 0 -241 -22z"/>
<path d="M3260 1407 l0 -82 240 0 c152 0 241 4 242 10 1 6 2 42 3 82 l1 71
-243 1 -243 0 0 -82z"/>
</g>
</svg>
