<?xml version="1.0" encoding="utf-8"?>
<!-- Generator: Adobe Illustrator 25.2.1, SVG Export Plug-In . SVG Version: 6.00 Build 0)  -->
<svg version="1.1" id="Camada_1" xmlns="http://www.w3.org/2000/svg" xmlns:xlink="http://www.w3.org/1999/xlink" x="0px" y="0px"
	 viewBox="0 0 500 500" style="enable-background:new 0 0 500 500;" xml:space="preserve">
<style type="text/css">
	.st0{fill:none;stroke:#010202;stroke-width:12;stroke-miterlimit:10;}
</style>
<g>
	<path class="st0" d="M343.91,455.93V109.77c-5.11-56.26-72.3-54.1-86.7-52.98c-14.4-1.12-81.58-3.28-86.7,52.98v346.16
		c0,0-4.62,28.66,34.37,28.66c26.22,0,42.05,0,49.61,0c3.69,0,5.42,0,5.42,0c7.57,0,23.4,0,49.61,0
		C348.53,484.59,343.91,455.93,343.91,455.93z"/>
	<path class="st0" d="M235.85,56.41v-37.2c0,0,22.92-15.86,45.85,0v37.2"/>
	<line class="st0" x1="314.33" y1="200.26" x2="314.33" y2="441.42"/>
	<line class="st0" x1="314.33" y1="160.21" x2="314.33" y2="131.56"/>
</g>
</svg>
