<?xml version="1.0" encoding="utf-8"?>
<!-- Generator: Adobe Illustrator 25.2.1, SVG Export Plug-In . SVG Version: 6.00 Build 0)  -->
<svg version="1.1" id="Camada_1" xmlns="http://www.w3.org/2000/svg" xmlns:xlink="http://www.w3.org/1999/xlink" x="0px" y="0px"
	 viewBox="0 0 360 500" style="enable-background:new 0 0 360 500;" xml:space="preserve">
<style type="text/css">
	.st0{fill:none;stroke:#010202;stroke-width:10;stroke-miterlimit:10;}
	.st1{fill:none;stroke:#010202;stroke-width:10;stroke-linecap:round;stroke-miterlimit:10;}
	.st2{fill:#010202;}
</style>
<path class="st0" d="M327.84,443.11H32.57c-11.84,0-21.43-9.6-21.43-21.43V76.48c0-11.84,9.6-21.43,21.43-21.43h295.27
	c11.84,0,21.43,9.6,21.43,21.43v345.2C349.27,433.51,339.68,443.11,327.84,443.11z"/>
<path class="st0" d="M102.12,145.27H54.21c-2.01,0-3.64-1.63-3.64-3.64v-39.15c0-2.01,1.63-3.64,3.64-3.64h47.91
	c2.01,0,3.64,1.63,3.64,3.64v39.15C105.76,143.64,104.13,145.27,102.12,145.27z"/>
<path class="st0" d="M102.12,145.27H54.21c-2.01,0-3.64-1.63-3.64-3.64v-39.15c0-2.01,1.63-3.64,3.64-3.64h47.91
	c2.01,0,3.64,1.63,3.64,3.64v39.15C105.76,143.64,104.13,145.27,102.12,145.27z"/>
<path class="st0" d="M204.16,145.27h-47.91c-2.01,0-3.64-1.63-3.64-3.64v-39.15c0-2.01,1.63-3.64,3.64-3.64h47.91
	c2.01,0,3.64,1.63,3.64,3.64v39.15C207.8,143.64,206.17,145.27,204.16,145.27z"/>
<path class="st0" d="M305.35,145.27h-47.91c-2.01,0-3.64-1.63-3.64-3.64v-39.15c0-2.01,1.63-3.64,3.64-3.64h47.91
	c2.01,0,3.64,1.63,3.64,3.64v39.15C308.99,143.64,307.36,145.27,305.35,145.27z"/>
<path class="st0" d="M34.35,443.11v26.93c0,4.48,3.63,8.11,8.11,8.11h23.59c5,0,9.05-4.05,9.05-9.05v-25.99"/>
<path class="st0" d="M66.05,478.15c5,0,9.05-4.05,9.05-9.05v-25.99"/>
<path class="st0" d="M279.56,443.11v26.93c0,4.48,3.63,8.11,8.11,8.11h23.59c5,0,9.05-4.05,9.05-9.05v-25.99"/>
<path class="st0" d="M311.26,478.15c5,0,9.05-4.05,9.05-9.05v-25.99"/>
<path class="st1" d="M139.05,402.81H56.04c-0.73,0-1.31-0.59-1.31-1.31V190.38c0-0.73,0.59-1.31,1.31-1.31h246.38
	c0.73,0,1.31,0.59,1.31,1.31V401.5c0,0.73-0.59,1.31-1.31,1.31h-85.41"/>
<circle class="st2" cx="179.23" cy="402.6" r="9.42"/>
<line class="st1" x1="109.26" y1="314.34" x2="155.48" y2="268.57"/>
<line class="st1" x1="197.36" y1="354.25" x2="243.59" y2="308.49"/>
<line class="st1" x1="129.5" y1="357.77" x2="222.81" y2="265.38"/>
<line class="st1" x1="54.72" y1="229.37" x2="303.73" y2="229.37"/>
</svg>
