<?xml version="1.0" encoding="utf-8"?>
<!-- Generator: Adobe Illustrator 25.2.1, SVG Export Plug-In . SVG Version: 6.00 Build 0)  -->
<svg version="1.1" id="Camada_1" xmlns="http://www.w3.org/2000/svg" xmlns:xlink="http://www.w3.org/1999/xlink" x="0px" y="0px"
	 viewBox="0 0 404.84 183.66" style="enable-background:new 0 0 404.84 183.66;" xml:space="preserve">
<style type="text/css">
	.st0{fill-rule:evenodd;clip-rule:evenodd;fill:#FFFFFF;}
</style>
<path class="st0" d="M100.39,83.28c-2.2-2.2-5.23-3.56-8.58-3.56c-3.35,0-6.38,1.36-8.57,3.56c-2.2,2.19-3.55,5.23-3.55,8.57
	c0,3.35,1.36,6.38,3.55,8.57c2.19,2.2,5.23,3.55,8.57,3.55c3.35,0,6.38-1.36,8.58-3.55c2.19-2.19,3.55-5.23,3.55-8.57
	C103.95,88.51,102.59,85.47,100.39,83.28z M91.82,75.48c4.52,0,8.62,1.83,11.58,4.8s4.8,7.06,4.8,11.58c0,4.52-1.83,8.62-4.8,11.58
	c-2.96,2.97-7.06,4.8-11.58,4.8c-4.52,0-8.62-1.83-11.58-4.8c-2.96-2.96-4.8-7.06-4.8-11.58c0-4.52,1.83-8.62,4.8-11.58
	C83.2,77.31,87.29,75.48,91.82,75.48z M85.83,56.54H98.6v4.25H85.83V56.54z M85.52,34.49h12.77v4.25H85.52V34.49z M85.68,45.51
	h12.77v4.25H85.68V45.51z M56.77,97.65l-0.05-12.77h4.24l0.05,12.77H56.77z M34.72,98.04l-0.05-12.77h4.24l0.05,12.77H34.72z
	 M45.75,97.85L45.7,85.08h4.23l0.05,12.77H45.75z M85.83,122.58H98.6v4.25H85.83V122.58z M85.52,144.64h12.77v4.25H85.52V144.64z
	 M85.68,133.61h12.77v4.25H85.68V133.61z M122.81,97.81l-0.05-12.76H127l0.05,12.76H122.81z M144.87,98.04l-0.05-12.77h4.24
	l0.05,12.77H144.87z M133.84,97.93l-0.05-12.77h4.23l0.05,12.77H133.84z M85.83,58.67H98.6H85.83z M85.52,36.61h12.77H85.52z
	 M85.68,47.64h12.77H85.68z M58.89,97.65l-0.05-12.77L58.89,97.65z M36.84,98.04l-0.05-12.77L36.84,98.04z M47.86,97.85l-0.05-12.77
	L47.86,97.85z M85.83,124.71H98.6H85.83z M85.52,146.76h12.77H85.52z M85.68,135.74h12.77H85.68z M124.93,97.81l-0.05-12.76
	L124.93,97.81z M146.99,98.04l-0.05-12.77L146.99,98.04z M135.96,97.93l-0.05-12.77L135.96,97.93z M59.81,62.73L33.61,36.08
	l3.02-2.97l26.21,26.66L59.81,62.73z M122.24,58.57l25.32-25.47l3.01,2.99l-25.32,25.47L122.24,58.57z M124.13,121.36l26.21,25.77
	l-2.97,3.02l-26.21-25.76L124.13,121.36z M62.61,124.07l-26.21,26.06l-2.99-3l26.21-26.06L62.61,124.07z M65.95,119.14l-26.1-11.16
	l-20.73-5.9l-0.15-20.65l20.69-6.05l25.97-9.41l9.96-26.38l5.98-20.71l20.65-0.07l5.98,20.71l9.64,26.12L144,75.38l20.74,5.9
	l0.01,20.64l-20.69,6.05l-26.22,9.23l-9.64,26.65l-5.98,20.72l-20.64-0.07l-5.98-20.72L65.95,119.14z M91.83,0
	c50.72,0,91.83,41.11,91.83,91.83c0,50.72-41.11,91.83-91.83,91.83C41.11,183.66,0,142.55,0,91.83C0,41.11,41.11,0,91.83,0z"/>
<path class="st0" d="M397.87,109.04h-25.16V12.43h25.16V109.04z M362.63,12.43v96.61h-21.98l-13.07-43.93v43.93h-21.01V12.43h21.01
	l14.05,43.5v-43.5H362.63z M296.76,48.09H271.6v-8.77c0-5.54-0.23-9-0.69-10.38c-0.47-1.41-1.59-2.1-3.34-2.1
	c-1.51,0-2.54,0.59-3.09,1.79c-0.55,1.18-0.82,4.25-0.82,9.18v46.33c0,4.32,0.27,7.19,0.82,8.55c0.55,1.36,1.63,2.06,3.26,2.06
	c1.79,0,2.99-0.77,3.64-2.32c0.63-1.55,0.96-4.58,0.96-9.08V71.91h-4.88V57.25h29.31v51.78h-15.82l-2.32-6.92
	c-1.71,2.99-3.87,5.23-6.45,6.74c-2.6,1.5-5.68,2.26-9.2,2.26c-4.21,0-8.14-1.02-11.82-3.07c-3.66-2.06-6.45-4.58-8.35-7.61
	c-1.91-3.01-3.09-6.19-3.58-9.5c-0.47-3.32-0.71-8.3-0.71-14.94v-28.7c0-9.22,0.49-15.92,1.48-20.09c1-4.19,3.85-8.02,8.55-11.5
	c4.7-3.48,10.79-5.21,18.26-5.21c7.35,0,13.43,1.51,18.28,4.54c4.84,3.04,8.02,6.62,9.48,10.77c1.46,4.17,2.2,10.2,2.2,18.14V48.09z
	 M229.2,109.04h-25.16V12.43h25.16V109.04z"/>
<path class="st0" d="M376.64,155.44h8.82v3.04c0,2.91,0.37,4.89,1.09,5.94c0.72,1.06,1.98,1.58,3.76,1.58
	c1.87,0,3.28-0.47,4.26-1.41c0.98-0.94,1.46-2.34,1.46-4.17c0-1.42-0.34-2.63-1.02-3.65c-0.67-1-2.14-2.32-4.39-3.91l-4.51-3.19
	c-3.9-2.71-6.38-4.94-7.43-6.7c-1.06-1.76-1.58-3.97-1.58-6.64c0-3.97,1.17-7.09,3.53-9.34c2.36-2.26,5.61-3.38,9.74-3.38
	c4.39,0,7.75,1.19,10.09,3.6c2.34,2.39,3.5,5.83,3.5,10.32c0,0.45,0,0.8-0.01,1.04c-0.01,0.25-0.03,0.46-0.05,0.65h-8.37v-1.26
	c0-2.57-0.42-4.4-1.26-5.52c-0.84-1.1-2.22-1.66-4.14-1.66c-1.41,0-2.52,0.42-3.32,1.25c-0.8,0.83-1.22,1.98-1.22,3.46
	c0,1.99,1.81,4.2,5.43,6.62l0.09,0.06l4.86,3.29c3.46,2.3,5.8,4.46,7.03,6.5c1.23,2.03,1.84,4.62,1.84,7.78
	c0,4.3-1.23,7.62-3.69,9.95c-2.45,2.34-5.97,3.5-10.53,3.5c-4.75,0-8.28-1.23-10.61-3.68c-2.32-2.45-3.48-6.21-3.48-11.24
	c0-0.53,0.04-1.41,0.11-2.63V155.44z M346.39,172.05v-47.31h24.29v7.86h-15.55v10.95h14.47v7.48h-14.47v13.02h15.92v7.99H346.39z
	 M318.01,120.4h-2.7c0.41-2.37,1.07-4.15,1.99-5.34c0.92-1.19,2.09-1.77,3.5-1.77c0.3,0,0.62,0.02,0.93,0.06
	c0.31,0.04,0.63,0.11,0.93,0.19l3.38,1.01c0.22,0.06,0.46,0.12,0.7,0.15c0.25,0.03,0.5,0.04,0.77,0.04c0.62,0,1.12-0.2,1.51-0.59
	c0.39-0.4,0.66-0.98,0.83-1.74h2.7c-0.34,2.29-1.02,4.09-2.02,5.37c-1.01,1.29-2.24,1.93-3.71,1.93c-0.29,0-0.56-0.02-0.8-0.06
	c-0.24-0.04-0.5-0.11-0.77-0.19l-3.71-1.07c-0.17-0.07-0.33-0.12-0.5-0.15c-0.16-0.03-0.33-0.04-0.52-0.04
	c-0.65,0-1.2,0.19-1.62,0.57C318.47,119.14,318.18,119.68,318.01,120.4z M308.52,148.39c0-5.01,0.23-9.03,0.7-12.03
	c0.47-3,1.22-5.25,2.21-6.77c1.38-2.15,3.01-3.68,4.92-4.6c1.9-0.93,4.4-1.39,7.52-1.39c3.11,0,5.62,0.46,7.51,1.39
	c1.91,0.92,3.56,2.45,4.95,4.6c1,1.56,1.73,3.83,2.19,6.83c0.46,2.99,0.69,6.97,0.69,11.98c0,4.98-0.23,8.96-0.7,11.96
	c-0.47,3-1.2,5.28-2.18,6.84c-1.39,2.15-3.04,3.68-4.95,4.6c-1.9,0.92-4.4,1.38-7.51,1.38c-3.12,0-5.62-0.46-7.52-1.38
	c-1.91-0.92-3.54-2.45-4.92-4.6c-1-1.52-1.74-3.78-2.21-6.77C308.75,157.42,308.52,153.41,308.52,148.39z M317.52,148.4
	c0,7.79,0.45,12.69,1.36,14.7c0.91,2.02,2.6,3.03,5.06,3.03c2.41,0,4.07-0.98,4.96-2.96c0.89-1.97,1.33-6.9,1.33-14.77
	c0-7.86-0.45-12.79-1.35-14.81c-0.9-2-2.57-3.01-5-3.01c-2.43,0-4.1,1.01-5,3.01C317.97,135.61,317.52,140.54,317.52,148.4z
	 M295.77,172.05l-0.65-5.21c-0.89,2.27-2.12,3.89-3.7,4.88c-1.56,0.98-3.71,1.47-6.46,1.47c-4.96,0-8.44-1.88-10.45-5.62
	c-2.02-3.74-3.03-10.62-3.03-20.61c0-4.66,0.24-8.41,0.72-11.22c0.48-2.82,1.23-4.99,2.25-6.53c1.23-1.88,2.86-3.27,4.89-4.17
	c2.02-0.9,4.55-1.35,7.56-1.35c5.07,0,8.82,1.19,11.23,3.6c2.4,2.4,3.61,6.12,3.61,11.19v1.19h-8.24v-0.49
	c0-2.82-0.52-4.96-1.58-6.41c-1.05-1.44-2.62-2.16-4.71-2.16c-2.57,0-4.31,0.98-5.25,2.94c-0.95,1.97-1.41,7.18-1.41,15.63
	c0,6.68,0.45,11.15,1.35,13.4c0.9,2.25,2.53,3.38,4.88,3.38c2.34,0,4-0.8,4.99-2.4c1-1.59,1.49-4.3,1.49-8.11v-1.62h-6.1v-7.55
	h14.59v25.79H295.77z M234.56,148.39c0-5.01,0.24-9.03,0.7-12.03c0.47-3,1.22-5.25,2.21-6.77c1.37-2.15,3.01-3.68,4.92-4.6
	c1.9-0.93,4.4-1.39,7.52-1.39c3.11,0,5.62,0.46,7.52,1.39c1.91,0.92,3.55,2.45,4.95,4.6c1,1.56,1.73,3.83,2.19,6.83
	c0.46,2.99,0.69,6.97,0.69,11.98c0,4.98-0.23,8.96-0.7,11.96c-0.47,3-1.21,5.28-2.18,6.84c-1.39,2.15-3.04,3.68-4.95,4.6
	c-1.9,0.92-4.41,1.38-7.52,1.38c-3.11,0-5.62-0.46-7.52-1.38c-1.91-0.92-3.55-2.45-4.92-4.6c-1-1.52-1.74-3.78-2.21-6.77
	C234.79,157.42,234.56,153.41,234.56,148.39z M243.55,148.4c0,7.79,0.45,12.69,1.36,14.7c0.91,2.02,2.6,3.03,5.05,3.03
	c2.41,0,4.07-0.98,4.96-2.96c0.89-1.97,1.33-6.9,1.33-14.77c0-7.86-0.45-12.79-1.35-14.81c-0.9-2-2.57-3.01-5-3.01
	c-2.43,0-4.1,1.01-5,3.01C244.01,135.61,243.55,140.54,243.55,148.4z M204.75,172.05v-47.31h24.73v7.74h-15.92v11.2h15.02v7.55
	h-15.02v20.82H204.75z"/>
<rect x="203.07" y="114.5" class="st0" width="107.11" height="3.94"/>
<rect x="337.24" y="114.5" class="st0" width="60.63" height="3.94"/>
</svg>
